<svg width="189" height="145" viewBox="0 0 189 145" fill="none" xmlns="http://www.w3.org/2000/svg">
<circle cx="14.5989" cy="14.5989" r="14.5989" transform="matrix(4.37114e-08 1 1 -4.37114e-08 0 0)" fill="#146EF5"/>
<circle cx="14.5989" cy="14.5989" r="14.5989" transform="matrix(4.37114e-08 1 1 -4.37114e-08 38.3223 0)" fill="black"/>
<circle opacity="0.6" cx="14.5989" cy="14.5989" r="14.5989" transform="matrix(4.37114e-08 1 1 -4.37114e-08 0 38.3223)" fill="#146EF5"/>
<circle opacity="0.6" cx="14.5989" cy="14.5989" r="14.5989" transform="matrix(4.37114e-08 1 1 -4.37114e-08 38.3223 38.3223)" fill="black"/>
<circle opacity="0.4" cx="14.5989" cy="14.5989" r="14.5989" transform="matrix(4.37114e-08 1 1 -4.37114e-08 0 76.6445)" fill="#146EF5"/>
<circle opacity="0.3" cx="14.5989" cy="14.5989" r="14.5989" transform="matrix(4.37114e-08 1 1 -4.37114e-08 38.3223 76.6445)" fill="black"/>
<circle opacity="0.2" cx="14.5989" cy="14.5989" r="14.5989" transform="matrix(4.37114e-08 1 1 -4.37114e-08 0 114.967)" fill="#146EF5"/>
<circle opacity="0.1" cx="14.5989" cy="14.5989" r="14.5989" transform="matrix(4.37114e-08 1 1 -4.37114e-08 38.3223 114.967)" fill="black"/>
<g style="mix-blend-mode:multiply">
<path d="M105.718 26.0989C105.151 25.936 104.665 25.6728 104.26 25.3095C103.868 24.9448 103.534 24.5021 103.256 23.9813C103.349 23.6181 103.526 23.305 103.786 23.0419C104.045 22.7659 104.34 22.5254 104.672 22.3203C105.017 22.1139 105.385 21.9377 105.776 21.792C106.166 21.6462 106.545 21.5147 106.912 21.3975C106.993 21.4153 107.032 21.4112 107.029 21.3853C107.026 21.3594 107.06 21.3689 107.13 21.4139C107.581 21.2225 108.105 21.03 108.7 20.8365C109.293 20.6301 109.935 20.5103 110.626 20.477C110.711 20.4157 110.818 20.3782 110.948 20.3646C111.076 20.338 111.211 20.3173 111.354 20.3023C111.496 20.2873 111.632 20.273 111.761 20.2594C111.89 20.2329 111.997 20.1954 112.083 20.147C112.171 20.2295 112.293 20.2755 112.452 20.2851C112.608 20.2817 112.777 20.3294 112.958 20.4283C113.011 20.4358 113.009 20.4164 112.951 20.37C112.893 20.3107 112.895 20.2647 112.957 20.232C113.125 20.2143 113.278 20.2375 113.416 20.3016C113.553 20.3657 113.679 20.4441 113.794 20.5368C113.92 20.6152 114.032 20.6885 114.131 20.7566C114.243 20.8234 114.357 20.8507 114.474 20.8385C114.605 20.9687 114.755 21.0904 114.924 21.2035C115.105 21.3024 115.273 21.4091 115.429 21.5236C115.598 21.6367 115.736 21.7663 115.843 21.9121C115.963 22.0566 116.033 22.226 116.054 22.4202C116.049 22.4993 116.08 22.5419 116.146 22.548C116.212 22.5542 116.261 22.5883 116.294 22.6503C116.357 23.1281 116.323 23.5506 116.192 23.918C116.073 24.2839 115.906 24.6288 115.692 24.9525C115.475 25.2632 115.239 25.563 114.981 25.852C114.736 26.1396 114.513 26.4445 114.311 26.7668C114.487 26.9448 114.681 27.1077 114.893 27.2556C115.116 27.3892 115.34 27.5228 115.563 27.6565C115.787 27.7901 115.999 27.938 116.199 28.1002C116.411 28.2482 116.593 28.4254 116.746 28.6319C116.793 28.7055 116.883 28.7485 117.015 28.7608C117.07 28.9121 117.139 29.0685 117.221 29.2301C117.315 29.3773 117.403 29.5252 117.484 29.6738C117.564 29.8094 117.616 29.9348 117.641 30.05C117.666 30.1652 117.644 30.2657 117.575 30.3516C117.671 30.3939 117.732 30.4726 117.757 30.5878C117.781 30.69 117.789 30.7742 117.783 30.8403C117.535 31.2199 117.367 31.4863 117.278 31.6397C117.189 31.793 117.123 31.9047 117.078 31.9749C117.033 32.0451 116.987 32.1088 116.941 32.1661C116.894 32.2233 116.789 32.3392 116.624 32.5136C115.981 33.0001 115.302 33.4512 114.586 33.8668C113.882 34.2682 113.135 34.5693 112.344 34.7702C112.289 34.8677 112.199 34.9491 112.075 35.0145C111.965 35.0915 111.835 35.1576 111.683 35.2128C111.532 35.268 111.367 35.318 111.189 35.363C111.023 35.4066 110.87 35.4488 110.731 35.4897C110.663 35.4706 110.62 35.4293 110.6 35.366C110.594 35.3142 110.558 35.2787 110.49 35.2596C110.494 35.4164 110.431 35.5016 110.301 35.5152C110.186 35.5404 110.034 35.5301 109.846 35.4844C109.658 35.4387 109.461 35.3678 109.254 35.2717C109.048 35.1756 108.868 35.0832 108.715 34.9946C108.662 35.1179 108.591 35.2498 108.501 35.3902C108.424 35.5292 108.336 35.63 108.238 35.6927C108.054 35.6859 107.916 35.6807 107.824 35.6773C107.745 35.6725 107.671 35.7131 107.601 35.7989C107.492 35.758 107.408 35.7079 107.35 35.6486C107.293 35.6023 107.235 35.5494 107.176 35.4901C107.119 35.4438 107.056 35.4046 106.987 35.3725C106.917 35.3275 106.815 35.2924 106.681 35.2672C106.7 35.1997 106.671 35.1046 106.592 34.982C106.513 34.8463 106.413 34.7717 106.294 34.758C106.348 34.6476 106.308 34.5208 106.175 34.3777C106.041 34.2216 105.931 34.0434 105.844 33.843C105.848 33.751 105.845 33.6596 105.835 33.569C105.837 33.464 105.841 33.372 105.845 33.293C105.862 33.1996 105.886 33.1185 105.918 33.0497C105.95 32.9808 106.01 32.9287 106.098 32.8933C106.067 32.7263 105.998 32.5699 105.891 32.424C105.998 32.3211 106.065 32.2029 106.09 32.0693C106.114 31.9228 106.131 31.7769 106.142 31.6318C106.166 31.4852 106.197 31.3445 106.235 31.2096C106.272 31.0617 106.344 30.9363 106.451 30.8334C106.421 30.7973 106.392 30.7676 106.363 30.7444C106.334 30.7213 106.317 30.6773 106.31 30.6125C106.47 30.2684 106.577 29.9822 106.632 29.7539C106.685 29.5126 106.72 29.2863 106.737 29.0751C106.766 28.8495 106.793 28.6109 106.819 28.3595C106.845 28.108 106.916 27.7863 107.032 27.3944C106.995 27.1627 106.999 26.9528 107.045 26.7647C107.09 26.5766 107.137 26.395 107.184 26.2198C107.242 26.0303 107.281 25.8365 107.299 25.6381C107.318 25.4398 107.287 25.2139 107.208 24.9603C106.991 25.0094 106.837 25.1041 106.747 25.2445C106.67 25.3835 106.63 25.5644 106.628 25.7873C106.522 25.9031 106.378 25.9706 106.197 25.9896C106.014 25.9957 105.855 26.0322 105.718 26.0989ZM114.658 28.9495C114.138 28.7293 113.667 28.6151 113.248 28.6068C112.841 28.5972 112.453 28.6445 112.084 28.7488C111.727 28.8387 111.386 28.9531 111.06 29.0921C110.734 29.2311 110.405 29.3442 110.074 29.4313C109.952 29.8893 109.828 30.3933 109.703 30.9433C109.577 31.4933 109.457 32.0296 109.342 32.5524C109.801 32.4386 110.218 32.2966 110.593 32.1262C110.968 31.9559 111.329 31.774 111.675 31.5805C112.02 31.374 112.359 31.1747 112.692 30.9826C113.024 30.7775 113.37 30.584 113.731 30.4021C113.753 30.2426 113.825 30.1108 113.945 30.0065C114.065 29.9022 114.185 29.8045 114.307 29.7131C114.427 29.6089 114.526 29.5002 114.606 29.3871C114.686 29.274 114.703 29.1281 114.658 28.9495ZM112.66 23.0127C111.854 23.0711 111.072 23.2254 110.312 23.4754C109.553 23.7254 108.925 24.0402 108.428 24.4197C108.71 24.6126 108.996 24.779 109.286 24.9187C109.588 25.0571 109.826 25.2613 109.998 25.5312C110.594 25.2198 111.105 24.8519 111.532 24.4274C111.957 23.9899 112.333 23.5183 112.66 23.0127ZM119.115 32.4874C119.052 32.5072 118.989 32.468 118.926 32.3698C118.862 32.2587 118.792 32.1548 118.716 32.058L118.93 32.0355C118.81 31.7602 118.756 31.5039 118.771 31.2667C118.797 31.0153 118.83 30.776 118.872 30.5491C118.912 30.3092 118.941 30.0836 118.958 29.8723C118.987 29.6468 118.943 29.4222 118.828 29.1986C118.897 29.2307 118.941 29.2129 118.96 29.1455C118.991 29.0637 119.007 28.9703 119.009 28.8654C119.023 28.7461 119.017 28.6289 118.992 28.5137C118.978 28.3842 118.961 28.2813 118.94 28.2049C119.066 27.7858 119.152 27.3578 119.198 26.921C119.256 26.4827 119.303 26.0523 119.337 25.6298C119.37 25.1943 119.411 24.7775 119.461 24.3795C119.522 23.9672 119.612 23.5781 119.731 23.2121C119.91 23.1671 120.1 23.1733 120.302 23.2306C120.516 23.2736 120.661 23.3434 120.737 23.4402C121.106 23.0872 121.422 22.6743 121.687 22.2013C121.951 21.7284 122.217 21.2684 122.484 20.8213C122.763 20.36 123.086 19.9463 123.454 19.5804C123.821 19.2145 124.299 18.9678 124.888 18.8405C125.222 19.0279 125.597 19.2308 126.013 19.4489C126.427 19.6541 126.777 19.9316 127.062 20.2813C127.173 20.3351 127.277 20.3961 127.376 20.4643C127.487 20.5182 127.597 20.572 127.707 20.6259L127.738 20.9172C127.937 21.0665 128.107 21.2516 128.248 21.4724C128.401 21.679 128.536 21.907 128.654 22.1564C128.783 22.3916 128.907 22.6339 129.025 22.8833C129.143 23.1328 129.271 23.3615 129.411 23.5694C129.393 23.6498 129.388 23.7224 129.395 23.7871C129.413 23.8376 129.432 23.8945 129.452 23.9579C129.483 24.0069 129.51 24.0696 129.531 24.146C129.55 24.2094 129.566 24.2929 129.577 24.3965C129.597 25.0882 129.429 25.6689 129.072 26.1384C128.727 26.5936 128.284 26.9871 127.743 27.319C127.214 27.6365 126.642 27.9257 126.028 28.1866C125.412 28.4346 124.857 28.6959 124.362 28.9705C124.368 29.0223 124.396 29.0455 124.448 29.04C124.513 29.0332 124.536 29.07 124.519 29.1504C124.931 29.3427 125.249 29.4992 125.471 29.6198C125.706 29.7391 125.92 29.8411 126.112 29.9256C126.316 29.9958 126.531 30.0517 126.758 30.0934C126.998 30.1336 127.324 30.178 127.735 30.2264C128.145 30.2749 128.464 30.3199 128.691 30.3615C128.93 30.3888 129.142 30.4124 129.327 30.4321C129.511 30.439 129.708 30.4445 129.918 30.4486C130.128 30.4527 130.41 30.4558 130.764 30.4579C130.921 30.5854 131.055 30.7415 131.166 30.9262C131.277 31.1109 131.363 31.2984 131.422 31.4885C131.481 31.6787 131.507 31.8658 131.5 32.0498C131.505 32.2195 131.468 32.3609 131.388 32.474C131.406 32.5245 131.441 32.547 131.493 32.5415C131.557 32.5218 131.621 32.515 131.687 32.5211C131.604 32.5954 131.534 32.6812 131.479 32.7787C131.424 32.8761 131.368 32.9736 131.313 33.071C131.258 33.1685 131.189 33.2608 131.107 33.3481C131.037 33.4339 130.938 33.4901 130.81 33.5167C130.363 33.747 129.768 33.8161 129.025 33.7239C128.282 33.6318 127.325 33.4313 126.154 33.1224C125.575 32.9737 125.102 32.8336 124.735 32.702C124.367 32.5704 124.046 32.4405 123.771 32.3123C123.494 32.1712 123.236 32.0216 122.997 31.8634C122.756 31.6923 122.48 31.4922 122.168 31.2632C122.13 31.2802 122.107 31.3088 122.098 31.349C122.102 31.3879 122.086 31.4158 122.048 31.4329C122.038 31.9577 121.979 32.3894 121.87 32.7281C121.775 33.0655 121.615 33.4161 121.392 33.78C121.18 33.7629 121.04 33.7973 120.97 33.8832C120.914 33.9677 120.837 34.0478 120.74 34.1234C120.614 34.1629 120.516 34.1666 120.447 34.1346C120.379 34.1155 120.318 34.0892 120.262 34.0558C120.206 34.0224 120.144 33.9897 120.075 33.9577C120.006 33.9256 119.901 33.9236 119.76 33.9515C119.709 33.839 119.658 33.733 119.609 33.6335C119.558 33.5211 119.449 33.4802 119.282 33.5108C119.308 33.3902 119.311 33.2917 119.29 33.2153C119.267 33.1261 119.24 33.0504 119.207 32.9884C119.173 32.9134 119.139 32.8384 119.105 32.7635C119.084 32.6871 119.087 32.5951 119.115 32.4874ZM124.67 22.9287C124.527 23.1924 124.363 23.4388 124.178 23.6677C123.991 23.8837 123.806 24.1127 123.622 24.3546C123.449 24.5822 123.299 24.8337 123.171 25.109C123.041 25.3714 122.962 25.6808 122.934 26.0372C123.471 25.9153 124.026 25.7065 124.597 25.4108C125.167 25.1022 125.705 24.8099 126.213 24.5339C126.098 24.0616 125.89 23.6973 125.588 23.441C125.284 23.1717 124.978 23.001 124.67 22.9287ZM130.907 31.0713L131.139 30.8506L131.115 30.4406C131.356 29.6167 131.607 28.8244 131.867 28.0639C132.14 27.3019 132.425 26.5192 132.72 25.7157C132.811 25.4574 132.901 25.1992 132.992 24.9409C133.096 24.6812 133.192 24.4158 133.282 24.1445C133.263 24.0941 133.251 24.043 133.246 23.9912C133.239 23.9264 133.244 23.8538 133.262 23.7734C133.416 23.4954 133.534 23.2473 133.616 23.0292C133.711 22.8098 133.798 22.5846 133.879 22.3535C133.968 22.0823 134.064 21.8104 134.166 21.5378C134.281 21.2638 134.43 20.9929 134.611 20.7251L134.727 20.5166L134.942 20.5135C134.991 20.4822 135.041 20.4573 135.092 20.4389C135.154 20.4062 135.23 20.3851 135.321 20.3756L135.676 20.3971C136.083 20.1579 136.43 19.8401 136.715 19.4435C137.012 19.0325 137.302 18.5504 137.584 17.997L137.783 17.6423L138.114 17.8039C138.183 17.8359 138.29 17.8639 138.437 17.8878C138.584 17.9116 138.737 17.9413 138.898 17.9768C139.177 18.0129 139.45 18.0627 139.719 18.1262C139.986 18.1766 140.198 18.2656 140.356 18.3931L140.471 18.5577C140.512 18.6974 140.545 18.8249 140.57 18.9401C140.609 19.0539 140.647 19.1677 140.685 19.2815C140.765 19.548 140.839 19.8152 140.907 20.0831C140.973 20.338 141.029 20.6266 141.076 20.949C141.168 21.2012 141.254 21.4605 141.335 21.727C141.427 21.9792 141.512 22.2321 141.591 22.4856C141.695 22.8543 141.805 23.2094 141.919 23.5509C142.032 23.8794 142.17 24.1923 142.332 24.4894C142.462 24.4758 142.54 24.4741 142.567 24.4844C142.716 24.4033 142.893 24.3454 143.099 24.3107L143.349 24.2647L143.451 24.4896C143.481 24.5257 143.518 24.5612 143.561 24.596C143.604 24.6307 143.653 24.6648 143.709 24.6982C143.918 24.6894 144.071 24.7191 144.17 24.7872C144.28 24.8411 144.371 24.897 144.443 24.9549C144.472 24.9781 144.507 25.0071 144.55 25.0418C144.592 25.0637 144.626 25.0797 144.654 25.0899L145.018 25.1891L144.862 25.5786C144.748 25.8655 144.556 26.1541 144.285 26.4444C144.028 26.7333 143.726 26.981 143.382 27.1875C143.417 27.2754 143.439 27.3582 143.447 27.4359C143.468 27.5123 143.497 27.6009 143.534 27.7017C143.613 27.9553 143.68 28.2231 143.736 28.5053C143.803 28.7732 143.833 29.0581 143.826 29.36C143.732 29.7103 143.608 30.0309 143.456 30.3219C143.315 30.5986 143.133 30.8599 142.91 31.1059C142.698 31.3376 142.451 31.5404 142.168 31.7141C141.884 31.8749 141.581 31.9788 141.258 32.0258C141.073 32.006 140.932 31.9749 140.836 31.9327C140.753 31.889 140.676 31.8447 140.606 31.7997C140.494 31.7329 140.405 31.69 140.337 31.6709L140.073 31.5809L140.12 31.2813C140.148 31.1737 140.132 31.0837 140.072 31.0114C140.025 30.9378 139.923 30.8438 139.767 30.7292C139.711 30.6958 139.662 30.6617 139.619 30.627C139.575 30.5793 139.524 30.5322 139.467 30.4859L139.031 30.08L139.654 29.8378C140.031 29.6933 140.277 29.5366 140.39 29.3676C140.502 29.1857 140.523 28.8889 140.453 28.4772C140.123 28.4465 139.857 28.4679 139.655 28.5415C139.452 28.6021 139.249 28.6692 139.048 28.7428C138.758 28.8518 138.474 28.9536 138.196 29.0483C137.917 29.1301 137.609 29.1886 137.272 29.224C137.052 29.2471 136.817 29.2522 136.566 29.2392L136.351 29.2423L136.27 29.0347C136.267 29.0088 136.245 28.985 136.204 28.9631C136.174 28.927 136.144 28.8974 136.116 28.8742C136.043 28.8033 135.954 28.7079 135.85 28.5879C135.746 28.4679 135.709 28.3081 135.741 28.1084C135.635 27.9755 135.568 27.832 135.538 27.678C135.497 27.787 135.463 27.8954 135.435 28.0031C135.419 28.0964 135.402 28.1898 135.386 28.2832L135.335 28.5439L135.086 28.6092C135.063 28.6379 135.041 28.6794 135.021 28.734C135.013 28.7871 135.017 28.826 135.033 28.8505L135.133 29.056L134.957 29.2512C134.936 29.2928 134.907 29.3286 134.87 29.3586C134.834 29.3886 134.805 29.4179 134.781 29.4465C134.771 29.5916 134.746 29.7317 134.708 29.8666C134.683 30.0002 134.651 30.1345 134.613 30.2694C134.57 30.4834 134.526 30.6909 134.482 30.892C134.45 31.0917 134.445 31.2886 134.465 31.4829L134.414 31.7436C134.36 31.854 134.284 31.9405 134.186 32.0032C134.101 32.0645 134.015 32.1194 133.928 32.1677C133.804 32.2331 133.719 32.2945 133.673 32.3517L133.641 32.6104L133.354 32.6798C133.19 32.7364 133.069 32.7752 132.993 32.7963C132.93 32.8161 132.853 32.8307 132.762 32.8402L132.507 32.8474C132.336 32.7083 132.194 32.6054 132.082 32.5385C131.982 32.4574 131.864 32.3913 131.727 32.3402L131.594 32.197C131.532 32.0989 131.49 32.0116 131.469 31.9353C131.446 31.846 131.417 31.7574 131.382 31.6695C131.338 31.5038 131.287 31.3914 131.229 31.3321L130.907 31.0713ZM136.572 25.3698C136.418 25.6478 136.272 25.9381 136.133 26.2407C136.223 26.2182 136.306 26.2029 136.384 26.1948C136.475 26.1852 136.565 26.1692 136.654 26.1467C137.104 26.0732 137.522 25.9966 137.906 25.9169C138.291 25.8372 138.705 25.7283 139.148 25.59C138.994 25.1217 138.827 24.6484 138.646 24.1699C138.476 23.6771 138.293 23.1857 138.098 22.6956L138.021 22.9001C137.734 23.2838 137.463 23.692 137.207 24.1247C136.952 24.5574 136.746 24.9653 136.59 25.3483L136.572 25.3698ZM148.896 29.2003C148.777 29.3175 148.714 29.4616 148.705 29.6327C148.696 29.7908 148.68 29.9496 148.657 30.1091C148.635 30.2685 148.578 30.412 148.486 30.5394C148.407 30.6526 148.243 30.7156 147.996 30.7285C147.951 30.7987 147.942 30.8389 147.969 30.8491C148.009 30.858 148.048 30.9129 148.085 31.0137C147.901 31.0069 147.772 31.0334 147.7 31.0934C147.628 31.1534 147.535 31.2024 147.421 31.2406C147.114 31.1812 146.844 31.0459 146.612 30.8346C146.392 30.609 146.19 30.3619 146.004 30.0933C145.832 29.8234 145.672 29.5456 145.524 29.2601C145.389 28.9731 145.252 28.7257 145.112 28.5178C145.107 28.466 145.13 28.4438 145.184 28.4514C145.222 28.4473 145.261 28.4432 145.3 28.4391C145.222 28.3164 145.162 28.1787 145.119 28.0261C145.063 27.8618 144.984 27.7326 144.882 27.6386C145.173 26.7962 145.487 25.9188 145.823 25.0063C146.158 24.0808 146.492 23.1488 146.825 22.2104C147.17 21.2577 147.509 20.3056 147.841 19.3542C148.185 18.3885 148.511 17.4443 148.82 16.5215C149.196 16.6129 149.562 16.7316 149.918 16.8775C150.285 17.0091 150.623 17.1764 150.933 17.3796C151.242 17.5827 151.51 17.8295 151.737 18.1199C151.976 18.3959 152.148 18.7248 152.253 19.1065C152.236 19.1869 152.206 19.2162 152.164 19.1944C152.123 19.1726 152.092 19.1889 152.071 19.2434C152.144 19.3143 152.183 19.3692 152.187 19.4081C152.203 19.4326 152.206 19.465 152.197 19.5052C152.187 19.5324 152.184 19.572 152.19 19.6238C152.195 19.6756 152.235 19.7434 152.309 19.8272C152.243 19.8211 152.199 19.8388 152.178 19.8804C152.154 19.909 152.109 19.9137 152.042 19.8947C152.125 20.0691 152.16 20.2095 152.145 20.3159C152.13 20.4222 152.101 20.5234 152.059 20.6195C152.015 20.7026 151.979 20.798 151.952 20.9057C151.935 20.9991 151.962 21.1272 152.031 21.2901C151.979 21.2956 151.942 21.3126 151.919 21.3412C151.907 21.3555 151.896 21.3763 151.886 21.4036C151.876 21.4308 151.859 21.4588 151.836 21.4874C151.824 21.5017 151.792 21.5051 151.739 21.4976C151.813 21.8302 151.862 22.172 151.886 22.523C151.908 22.861 151.932 23.212 151.957 23.576C151.981 23.927 152.019 24.2896 152.072 24.6637C152.124 25.0379 152.217 25.421 152.349 25.8129C152.872 25.4306 153.275 24.9628 153.557 24.4094C153.852 23.8547 154.064 23.2499 154.191 22.5949C154.332 21.9386 154.416 21.2424 154.443 20.5064C154.483 19.769 154.522 19.0186 154.56 18.2553C154.687 18.0978 154.779 17.9115 154.835 17.6961C154.904 17.4794 154.953 17.2582 154.981 17.0326C155.023 16.8057 155.058 16.5794 155.087 16.3538C155.127 16.1139 155.189 15.8979 155.274 15.7057C155.51 15.7071 155.711 15.7579 155.879 15.8581C156.058 15.9441 156.227 16.0507 156.384 16.1782C156.54 16.2927 156.702 16.4001 156.87 16.5003C157.037 16.6005 157.24 16.6578 157.477 16.6722C157.685 16.9121 157.88 17.1469 158.061 17.3766C158.241 17.5934 158.373 17.848 158.456 18.1404C158.392 18.278 158.349 18.4266 158.326 18.5861C158.303 18.7455 158.274 18.9057 158.239 19.0665C158.217 19.226 158.173 19.3746 158.109 19.5122C158.045 19.6499 157.947 19.7715 157.814 19.8772C157.816 20.2697 157.795 20.6384 157.753 20.9833C157.711 21.3281 157.674 21.6658 157.644 21.9964C157.613 22.3269 157.59 22.6697 157.575 23.0248C157.56 23.3799 157.581 23.764 157.637 24.177C157.56 24.5648 157.471 24.9669 157.371 25.3833C157.269 25.7867 157.204 26.1602 157.175 26.5037C156.949 26.7238 156.78 26.9838 156.667 27.2836C156.555 27.5835 156.436 27.884 156.311 28.1853C156.251 28.2439 156.214 28.2609 156.198 28.2364C156.181 28.1989 156.12 28.1791 156.015 28.177C156.04 28.2922 156.023 28.3726 155.962 28.4183C155.913 28.4496 155.929 28.5396 156.01 28.6882C155.801 28.8149 155.621 28.9713 155.47 29.1573C155.319 29.3434 155.148 29.5185 154.956 29.6827C154.776 29.8456 154.554 29.9672 154.287 30.0476C154.032 30.1137 153.683 30.0915 153.239 29.981C152.556 29.5815 151.929 29.104 151.36 28.5484C150.791 27.9929 150.314 27.3164 149.93 26.5189C149.804 26.5714 149.716 26.6657 149.665 26.802C149.614 26.9383 149.57 27.0804 149.533 27.2283C149.496 27.3762 149.458 27.5112 149.418 27.6331C149.379 27.7551 149.307 27.8216 149.203 27.8325C149.19 27.9517 149.15 28.0672 149.083 28.179C149.028 28.2765 148.973 28.3804 148.919 28.4908C148.864 28.5882 148.823 28.6973 148.796 28.8179C148.783 28.9372 148.816 29.0646 148.896 29.2003ZM161.114 29.9781C160.729 29.927 160.422 29.8087 160.193 29.6232C159.976 29.4235 159.8 29.1867 159.667 28.9126C159.545 28.6243 159.446 28.3074 159.37 27.9619C159.308 27.6149 159.237 27.2558 159.159 26.8843C159.193 26.7105 159.243 26.5613 159.308 26.4366C159.387 26.3105 159.408 26.1445 159.374 25.9387C159.473 25.5093 159.56 25.0943 159.636 24.6936C159.711 24.2928 159.747 23.8832 159.742 23.4648C159.808 23.34 159.877 23.2542 159.951 23.2072C159.977 22.4582 159.91 21.6993 159.751 20.9304C159.591 20.1616 159.386 19.4566 159.136 18.8152C159.134 18.6714 159.142 18.5657 159.161 18.4983C159.179 18.4179 159.172 18.3531 159.141 18.304C159.103 18.1902 159.135 18.1279 159.239 18.117C159.343 18.1061 159.446 18.0952 159.55 18.0843C159.525 17.8512 159.456 17.6294 159.342 17.4187C159.24 17.1938 159.135 16.9365 159.026 16.6468C159.105 16.4029 159.152 16.1688 159.168 15.9445C159.183 15.7203 159.234 15.5121 159.318 15.3199C159.746 15.4059 160.17 15.5119 160.589 15.6381C161.008 15.7642 161.421 15.8911 161.827 16.0186C162.232 16.1331 162.63 16.2484 163.022 16.3643C163.412 16.4673 163.794 16.545 164.166 16.5976C164.765 16.9405 165.377 17.282 166.002 17.6222C166.638 17.9481 167.221 18.3254 167.751 18.7542C168.292 19.1686 168.756 19.6632 169.144 20.2378C169.532 20.8124 169.795 21.5113 169.934 22.3347C169.916 22.4151 169.903 22.4819 169.896 22.535C169.888 22.5882 169.881 22.6413 169.873 22.6945C169.866 22.7477 169.866 22.8066 169.872 22.8714C169.879 22.9361 169.889 23.0268 169.901 23.1433C169.52 24.0081 169.003 24.7564 168.35 25.3881C167.696 26.0197 166.971 26.5935 166.174 27.1093C165.377 27.6251 164.538 28.1126 163.657 28.5718C162.787 29.0167 161.94 29.4855 161.114 29.9781ZM161.86 18.7645C161.744 18.7767 161.662 18.8115 161.616 18.8687C161.832 19.4351 162.007 19.9732 162.139 20.4831C162.271 20.9929 162.364 21.5068 162.419 22.0247C162.486 22.5414 162.516 23.075 162.509 23.6257C162.501 24.1764 162.472 24.7751 162.422 25.4219C162.589 25.3912 162.735 25.3432 162.859 25.2778C162.983 25.2124 163.106 25.1405 163.229 25.0622C163.365 24.9824 163.501 24.9092 163.638 24.8424C163.788 24.7743 163.959 24.7235 164.152 24.6902C164.193 24.5811 164.25 24.4966 164.322 24.4367C164.406 24.3624 164.477 24.2895 164.535 24.2179C164.845 24.0544 165.154 23.8844 165.463 23.7079C165.772 23.5315 166.053 23.3383 166.305 23.1284C166.558 22.9186 166.783 22.6855 166.978 22.4293C167.174 22.173 167.326 21.8756 167.434 21.5369C167.31 21.3535 167.164 21.2053 166.995 21.0921C166.837 20.9646 166.668 20.845 166.486 20.7332C166.315 20.6071 166.145 20.481 165.975 20.3548C165.816 20.2144 165.681 20.0519 165.57 19.8671C165.36 19.863 165.173 19.8303 165.01 19.7689C164.845 19.6946 164.687 19.6261 164.536 19.5633C164.384 19.4877 164.22 19.4198 164.044 19.3598C163.88 19.2985 163.688 19.2729 163.466 19.2831C163.11 19.1372 162.793 19.0461 162.514 19.01C162.234 18.9608 162.016 18.879 161.86 18.7645ZM109.02 55.65C108.614 55.4046 108.266 55.0812 107.975 54.6797C107.697 54.2768 107.462 53.8433 107.269 53.3792C107.089 52.9137 106.947 52.4311 106.842 51.9315C106.749 51.4176 106.684 50.9269 106.648 50.4594C106.728 50.0975 106.837 49.7652 106.975 49.4627C107.112 49.1471 107.271 48.849 107.451 48.5682C107.629 48.2745 107.817 47.9995 108.012 47.7433C108.219 47.4728 108.42 47.2029 108.614 46.9337C108.692 46.9256 108.765 46.9375 108.834 46.9695C108.871 46.8216 108.936 46.6905 109.029 46.576C109.121 46.4615 109.222 46.3593 109.33 46.2693C109.437 46.1664 109.545 46.07 109.653 45.9801C109.76 45.8772 109.847 45.7634 109.912 45.6387C110.228 45.5269 110.501 45.3869 110.732 45.2186C110.976 45.0489 111.206 44.8677 111.421 44.6748C111.636 44.482 111.86 44.3014 112.091 44.1331C112.322 43.9648 112.595 43.8248 112.911 43.7131C113.014 43.5713 113.145 43.4463 113.303 43.338C113.475 43.2283 113.641 43.1257 113.801 43.0303C113.974 42.9336 114.134 42.8317 114.28 42.7247C114.439 42.6164 114.562 42.4791 114.649 42.3128C114.737 42.4082 114.852 42.4355 114.991 42.3946C115.13 42.3408 115.255 42.2884 115.368 42.2373C115.444 42.2161 115.51 42.2223 115.566 42.2557C115.622 42.2891 115.672 42.3297 115.716 42.3774C115.772 42.4108 115.814 42.4326 115.841 42.4428C115.881 42.4517 115.916 42.4087 115.945 42.314C116.05 42.3161 116.081 42.3587 116.037 42.4418C116.006 42.5236 115.986 42.5781 115.976 42.6054C116.103 42.5659 116.209 42.5809 116.295 42.6504C116.392 42.7056 116.533 42.7367 116.717 42.7435C116.789 42.8015 116.813 42.8512 116.792 42.8928C116.77 42.9344 116.757 43.0011 116.754 43.0931C117.235 43.1866 117.557 43.3819 117.719 43.6791C117.879 43.9633 117.926 44.2792 117.858 44.6268C117.788 44.9614 117.626 45.2861 117.371 45.601C117.127 45.9015 116.842 46.1148 116.515 46.2408C116.124 46.3866 115.76 46.5297 115.421 46.67C115.095 46.809 114.777 46.9602 114.467 47.1238C114.17 47.2859 113.888 47.4726 113.623 47.6839C113.368 47.8808 113.15 48.1067 112.967 48.3615C112.616 48.5033 112.3 48.6804 112.022 48.893C111.756 49.1042 111.505 49.3335 111.269 49.5809C111.046 49.8269 110.831 50.0852 110.624 50.3557C110.415 50.6133 110.207 50.8709 109.998 51.1285C110.021 51.3486 110 51.5211 109.935 51.6458C109.869 51.7705 109.797 51.8959 109.719 52.0219C109.771 52.2653 109.845 52.4735 109.942 52.6466C110.05 52.8054 110.159 52.9707 110.269 53.1425C111.337 53.3444 112.452 53.4236 113.613 53.3802C114.785 53.3224 115.941 53.2402 117.082 53.1333C117.215 53.2765 117.36 53.4118 117.518 53.5393C117.687 53.6524 117.837 53.7741 117.969 53.9043C118.113 54.0331 118.228 54.1913 118.313 54.3787C118.41 54.5518 118.452 54.7699 118.441 55.033C118.244 55.2763 118.027 55.5151 117.789 55.7495C117.551 55.971 117.312 56.1925 117.074 56.4139C116.958 56.4391 116.816 56.4541 116.646 56.4588C116.49 56.4622 116.321 56.4734 116.139 56.4925C115.971 56.5102 115.797 56.5415 115.619 56.5865C115.452 56.6171 115.294 56.673 115.145 56.7541C114.327 56.8139 113.482 56.8046 112.609 56.7261C111.735 56.6346 110.923 56.5039 110.172 56.3341C110.012 56.1808 109.847 56.041 109.676 55.9149C109.505 55.7758 109.286 55.6875 109.02 55.65ZM124.24 55.8374C123.679 55.975 123.158 56.0036 122.678 55.9231C122.198 55.8426 121.756 55.6861 121.352 55.4536C120.961 55.2198 120.61 54.9294 120.298 54.5825C120 54.2341 119.744 53.8552 119.531 53.4455C119.322 52.5772 119.27 51.7774 119.377 51.0461C119.482 50.3019 119.677 49.6071 119.963 48.9617C120.249 48.3163 120.584 47.7051 120.968 47.1279C121.365 46.5493 121.746 45.9922 122.108 45.4566C122.203 45.4859 122.274 45.4784 122.322 45.4341C122.383 45.3884 122.429 45.3312 122.461 45.2624C122.506 45.1922 122.551 45.122 122.596 45.0518C122.654 44.9802 122.72 44.9274 122.795 44.8934C122.835 44.7714 122.889 44.6675 122.959 44.5816C123.041 44.4944 123.125 44.4136 123.208 44.3393C123.304 44.2508 123.386 44.1635 123.456 44.0777C123.538 43.9904 123.606 43.8852 123.658 43.7618C123.785 43.7223 123.89 43.6654 123.974 43.5911C124.071 43.5155 124.154 43.4347 124.224 43.3489C124.306 43.2617 124.389 43.1809 124.473 43.1066C124.557 43.0324 124.662 42.969 124.787 42.9165L124.761 42.664C125.032 42.5046 125.224 42.3404 125.337 42.1713C125.45 42.0023 125.585 41.7853 125.74 41.5202C125.881 41.4923 125.991 41.4742 126.068 41.4661C126.159 41.4565 126.293 41.4293 126.472 41.3843C126.565 41.152 126.659 40.9785 126.751 40.864C126.844 40.7495 126.981 40.6174 127.161 40.4674C127.366 40.5506 127.58 40.5936 127.803 40.5964C128.025 40.5862 128.236 40.6622 128.436 40.8244C128.465 40.9785 128.524 41.0967 128.611 41.1792C128.697 41.2487 128.789 41.3176 128.888 41.3857C128.985 41.441 129.083 41.5027 129.182 41.5708C129.281 41.639 129.351 41.7429 129.392 41.8827C129.456 41.8759 129.494 41.8588 129.504 41.8316C129.527 41.803 129.572 41.7917 129.638 41.7979C129.675 41.8987 129.71 41.9802 129.742 42.0422C129.775 42.1042 129.807 42.1598 129.838 42.2089C129.883 42.2566 129.921 42.3114 129.954 42.3735C130 42.4341 130.04 42.5084 130.076 42.5964C130.027 42.7586 129.987 42.933 129.954 43.1198C129.92 43.2935 129.828 43.421 129.68 43.5021C129.691 43.6057 129.736 43.6598 129.815 43.6646C129.892 43.6565 129.942 43.697 129.965 43.7863C129.99 43.9015 129.981 44.0007 129.937 44.0838C130.364 44.6543 130.761 45.2606 131.13 45.9027C131.497 46.5318 131.901 47.1309 132.34 47.7001C132.333 47.8841 132.359 48.0647 132.417 48.2419C132.486 48.4048 132.562 48.567 132.645 48.7286C132.74 48.8888 132.829 49.0496 132.911 49.2112C132.994 49.3727 133.057 49.5363 133.1 49.7019C133.149 49.9193 133.175 50.1589 133.176 50.4206C133.176 50.6694 133.149 50.9144 133.096 51.1556C133.043 51.3969 132.962 51.6279 132.855 51.8487C132.746 52.0566 132.612 52.2211 132.455 52.3424C132.275 52.6232 132.038 52.8641 131.745 53.0651C131.451 53.2532 131.186 53.4709 130.95 53.7182C130.779 53.8409 130.593 53.939 130.392 54.0126C130.189 54.0732 129.98 54.141 129.765 54.2159C129.608 54.3372 129.418 54.4619 129.195 54.59C128.972 54.7051 128.741 54.8145 128.503 54.918C128.265 55.0216 128.026 55.1122 127.786 55.1899C127.544 55.2546 127.324 55.2842 127.127 55.2787C126.679 55.496 126.238 55.6602 125.804 55.7712C125.371 55.8823 124.849 55.9043 124.24 55.8374ZM123.75 48.7405C123.651 49.0519 123.525 49.3402 123.369 49.6053C123.225 49.8561 123.082 50.1133 122.94 50.3771C122.797 50.6408 122.676 50.9219 122.577 51.2204C122.489 51.5046 122.458 51.8352 122.484 52.2121C122.766 52.405 123.085 52.509 123.44 52.524C123.807 52.5247 124.177 52.4924 124.549 52.4271C124.921 52.3487 125.291 52.2575 125.66 52.1533C126.028 52.049 126.362 51.9813 126.66 51.95C126.647 51.8334 126.693 51.7697 126.797 51.7588C127.335 51.6499 127.824 51.4479 128.265 51.1528C128.704 50.8448 129.162 50.5348 129.64 50.2227C129.688 50.0605 129.758 49.9157 129.849 49.7883C129.941 49.6609 129.981 49.4864 129.971 49.2649C129.894 49.1551 129.839 49.0628 129.805 48.9878C129.784 48.9115 129.765 48.7956 129.748 48.6402C129.363 48.2094 129.018 47.735 128.715 47.217C128.411 46.686 128.071 46.1915 127.695 45.7335C127.676 45.8009 127.631 45.8711 127.56 45.944C127.489 46.0169 127.404 46.0128 127.304 45.9317C127.278 46.0653 127.23 46.1621 127.157 46.222C127.084 46.2691 126.995 46.298 126.891 46.3089C126.801 46.3184 126.702 46.3092 126.594 46.2812C126.499 46.2519 126.41 46.209 126.325 46.1524C125.91 46.5626 125.494 46.9599 125.076 47.3442C124.671 47.7272 124.311 48.1643 123.996 48.6557C123.935 48.7013 123.898 48.7184 123.883 48.7068C123.869 48.6952 123.824 48.7064 123.75 48.7405ZM135.384 53.861C135.326 53.8147 135.275 53.7612 135.229 53.7005C135.182 53.6269 135.14 53.5332 135.102 53.4193C134.897 53.2183 134.728 52.9807 134.595 52.7067C134.461 52.4327 134.359 52.1488 134.289 51.8551C134.218 51.5484 134.178 51.2383 134.172 50.9248C134.165 50.6112 134.18 50.3151 134.216 50.0364C134.241 49.9028 134.259 49.7634 134.27 49.6183C134.309 49.3654 134.348 49.119 134.389 48.8791C134.428 48.6263 134.504 48.4154 134.617 48.2464C134.55 48.1094 134.54 47.9533 134.587 47.7781C134.634 47.603 134.683 47.4408 134.732 47.2915C134.754 47.25 134.77 47.2156 134.781 47.1883C134.789 47.1481 134.799 47.1144 134.809 47.0871C134.917 46.6175 135.02 46.1681 135.119 45.7387C135.23 45.295 135.336 44.8715 135.437 44.468C135.621 43.7286 135.794 43.0035 135.955 42.2926C136.129 41.5804 136.272 40.8257 136.385 40.0283C136.48 39.9397 136.565 39.8784 136.64 39.8443C136.665 39.8286 136.696 39.8123 136.733 39.7952C136.771 39.7782 136.815 39.767 136.867 39.7615C137.154 39.8754 137.486 39.978 137.862 40.0694C138.25 40.1465 138.573 40.1714 138.832 40.1442L139.193 40.4008C139.382 40.5774 139.546 40.7696 139.686 40.9775C139.837 41.1711 139.904 41.4389 139.888 41.7811C139.822 41.9058 139.765 41.9838 139.716 42.0151C139.67 42.3212 139.613 42.5955 139.547 42.8381C139.48 43.0678 139.412 43.2909 139.343 43.5077C139.264 43.7516 139.191 43.9949 139.125 44.2376C139.059 44.4802 139.011 44.7732 138.982 45.1167C138.913 45.2155 138.87 45.2987 138.851 45.3662C138.844 45.4323 138.832 45.4991 138.813 45.5665C138.795 45.6469 138.772 45.7345 138.742 45.8292C138.712 45.911 138.661 45.9884 138.59 46.0613C138.58 46.4682 138.537 46.8065 138.461 47.0764C138.383 47.3334 138.305 47.5903 138.228 47.8472C138.094 48.3195 137.973 48.7904 137.866 49.26C137.756 49.7166 137.719 50.2312 137.753 50.8037C137.904 50.7485 138.045 50.7141 138.174 50.7005C138.342 50.6828 138.507 50.6917 138.668 50.7271C139.109 50.445 139.6 50.2495 140.138 50.1406C140.689 50.0302 141.236 49.94 141.779 49.8699C142.232 49.8223 142.651 49.7586 143.035 49.6789C143.174 49.756 143.264 49.7989 143.304 49.8078C143.343 49.8037 143.408 49.7969 143.498 49.7874C143.537 49.7833 143.576 49.7792 143.615 49.7751C143.654 49.771 143.706 49.7721 143.772 49.7782C143.973 49.9404 144.161 50.0516 144.338 50.1116C144.513 50.1586 144.701 50.2043 144.902 50.2486C145.077 50.2957 145.246 50.3499 145.41 50.4113C145.585 50.4583 145.757 50.532 145.924 50.6322L146.203 51.6044C146.322 51.736 146.377 51.8284 146.37 51.8815C146.381 51.9851 146.364 52.0785 146.321 52.1616L146.386 52.41C146.145 52.4877 145.99 52.563 145.919 52.6359C145.847 52.6959 145.77 52.7759 145.689 52.8761C145.548 52.904 145.412 52.9248 145.283 52.9384C145.024 52.9656 144.762 53.0324 144.499 53.1387C144.095 53.037 143.66 53.0107 143.194 53.0597C143.013 53.0788 142.826 53.105 142.633 53.1384C142.453 53.1704 142.274 53.2089 142.095 53.2538C141.904 53.3001 141.712 53.3464 141.521 53.3927C141.328 53.4261 141.134 53.453 140.94 53.4734C140.787 53.5157 140.679 53.5466 140.616 53.5664C140.553 53.5862 140.49 53.6124 140.428 53.6451C140.002 53.8338 139.538 54.0266 139.035 54.2235C138.545 54.419 138.041 54.544 137.523 54.5984C136.759 54.6788 136.124 54.5492 135.617 54.2097C135.553 54.0986 135.506 54.025 135.476 53.9888C135.446 53.9527 135.415 53.9101 135.384 53.861ZM151.628 52.9588C151.067 53.0964 150.546 53.125 150.066 53.0445C149.586 52.964 149.144 52.8075 148.74 52.575C148.349 52.3412 147.998 52.0508 147.686 51.7038C147.388 51.3555 147.132 50.9765 146.919 50.5669C146.71 49.6986 146.658 48.8988 146.765 48.1675C146.87 47.4233 147.065 46.7285 147.351 46.0831C147.637 45.4377 147.972 44.8264 148.356 44.2492C148.754 43.6707 149.134 43.1136 149.496 42.5779C149.591 42.6073 149.662 42.5998 149.71 42.5555C149.771 42.5098 149.817 42.4526 149.849 42.3838C149.894 42.3136 149.939 42.2434 149.984 42.1732C150.042 42.1016 150.109 42.0488 150.183 42.0148C150.223 41.8928 150.278 41.7888 150.347 41.703C150.43 41.6157 150.513 41.535 150.597 41.4607C150.692 41.3721 150.774 41.2849 150.844 41.199C150.927 41.1118 150.994 41.0065 151.046 40.8832C151.173 40.8437 151.279 40.7868 151.362 40.7125C151.459 40.6369 151.542 40.5561 151.612 40.4703C151.694 40.383 151.778 40.3023 151.861 40.228C151.945 40.1537 152.05 40.0904 152.175 40.0379L152.149 39.7854C152.42 39.626 152.612 39.4617 152.725 39.2927C152.839 39.1237 152.973 38.9067 153.128 38.6416C153.269 38.6137 153.379 38.5956 153.456 38.5875C153.547 38.5779 153.682 38.5507 153.86 38.5057C153.954 38.2733 154.047 38.0999 154.139 37.9854C154.232 37.8709 154.369 37.7387 154.549 37.5888C154.755 37.672 154.969 37.715 155.191 37.7177C155.413 37.7075 155.624 37.7836 155.824 37.9458C155.854 38.0998 155.912 38.2181 155.999 38.3006C156.085 38.3701 156.177 38.439 156.276 38.5071C156.373 38.5624 156.472 38.624 156.57 38.6922C156.669 38.7604 156.739 38.8643 156.78 39.0041C156.845 38.9972 156.882 38.9802 156.892 38.953C156.916 38.9243 156.96 38.9131 157.026 38.9192C157.063 39.0201 157.098 39.1016 157.131 39.1636C157.163 39.2256 157.195 39.2812 157.227 39.3302C157.271 39.378 157.309 39.4328 157.342 39.4949C157.388 39.5555 157.428 39.6298 157.464 39.7177C157.415 39.8799 157.375 40.0544 157.342 40.2411C157.308 40.4149 157.217 40.5424 157.068 40.6234C157.079 40.727 157.124 40.7812 157.203 40.786C157.281 40.7778 157.331 40.8184 157.353 40.9077C157.378 41.0229 157.369 41.122 157.325 41.2052C157.752 41.7757 158.15 42.382 158.518 43.0241C158.885 43.6532 159.289 44.2523 159.728 44.8215C159.722 45.0055 159.747 45.1861 159.805 45.3633C159.874 45.5262 159.95 45.6884 160.033 45.85C160.128 46.0101 160.217 46.171 160.3 46.3325C160.382 46.4941 160.445 46.6577 160.489 46.8233C160.538 47.0407 160.563 47.2803 160.564 47.542C160.564 47.7907 160.538 48.0358 160.484 48.277C160.431 48.5183 160.351 48.7493 160.243 48.9701C160.134 49.178 160.001 49.3425 159.843 49.4638C159.663 49.7446 159.427 49.9855 159.134 50.1865C158.839 50.3745 158.574 50.5922 158.338 50.8396C158.168 50.9623 157.982 51.0604 157.78 51.1339C157.577 51.1946 157.368 51.2624 157.153 51.3373C156.996 51.4586 156.806 51.5833 156.584 51.7114C156.36 51.8265 156.129 51.9359 155.892 52.0394C155.654 52.143 155.414 52.2336 155.174 52.3112C154.932 52.376 154.712 52.4056 154.515 52.4001C154.067 52.6174 153.626 52.7816 153.192 52.8926C152.759 53.0037 152.238 53.0257 151.628 52.9588ZM151.138 45.8619C151.04 46.1733 150.913 46.4616 150.757 46.7267C150.613 46.9775 150.47 47.2347 150.328 47.4985C150.185 47.7622 150.064 48.0433 149.965 48.3418C149.877 48.626 149.846 48.9565 149.873 49.3334C150.155 49.5264 150.473 49.6303 150.828 49.6454C151.195 49.6461 151.565 49.6138 151.938 49.5484C152.309 49.4701 152.679 49.3789 153.048 49.2746C153.417 49.1704 153.75 49.1027 154.048 49.0714C154.035 48.9548 154.081 48.8911 154.185 48.8802C154.723 48.7712 155.213 48.5692 155.653 48.2742C156.092 47.9662 156.55 47.6562 157.028 47.3441C157.076 47.1819 157.146 47.0371 157.238 46.9097C157.329 46.7822 157.37 46.6078 157.359 46.3863C157.282 46.2765 157.227 46.1842 157.193 46.1092C157.172 46.0329 157.153 45.917 157.137 45.7616C156.751 45.3308 156.407 44.8564 156.103 44.3384C155.799 43.8074 155.459 43.3129 155.083 42.8548C155.064 42.9223 155.019 42.9925 154.948 43.0654C154.877 43.1383 154.792 43.1342 154.692 43.0531C154.666 43.1867 154.618 43.2835 154.545 43.3434C154.472 43.3904 154.383 43.4194 154.28 43.4303C154.189 43.4398 154.09 43.4306 153.982 43.4026C153.887 43.3733 153.798 43.3304 153.713 43.2738C153.298 43.684 152.882 44.0813 152.464 44.4656C152.059 44.8486 151.699 45.2857 151.384 45.777C151.323 45.8227 151.286 45.8397 151.272 45.8281C151.257 45.8166 151.213 45.8278 151.138 45.8619ZM162.109 50.0898C162.045 50.1096 161.982 50.0704 161.919 49.9722C161.855 49.8611 161.786 49.7572 161.71 49.6604L161.924 49.6379C161.803 49.3626 161.75 49.1063 161.764 48.8691C161.79 48.6176 161.824 48.3784 161.866 48.1515C161.906 47.9116 161.934 47.686 161.951 47.4747C161.98 47.2491 161.937 47.0246 161.822 46.801C161.891 46.833 161.935 46.8153 161.954 46.7479C161.984 46.6661 162.001 46.5727 162.003 46.4678C162.016 46.3485 162.011 46.2313 161.985 46.1161C161.972 45.9866 161.954 45.8837 161.933 45.8073C162.059 45.3882 162.145 44.9602 162.191 44.5233C162.25 44.0851 162.296 43.6547 162.33 43.2322C162.363 42.7967 162.404 42.3799 162.454 41.9819C162.516 41.5696 162.606 41.1805 162.724 40.8145C162.903 40.7695 163.093 40.7757 163.296 40.833C163.51 40.8759 163.655 40.9458 163.73 41.0426C164.099 40.6896 164.416 40.2767 164.68 39.8037C164.945 39.3308 165.211 38.8708 165.478 38.4237C165.757 37.9624 166.08 37.5487 166.447 37.1828C166.815 36.8169 167.293 36.5702 167.882 36.4429C168.216 36.6303 168.59 36.8332 169.006 37.0513C169.42 37.2565 169.77 37.534 170.056 37.8836C170.166 37.9375 170.271 37.9985 170.37 38.0667C170.48 38.1205 170.59 38.1744 170.701 38.2283L170.731 38.5196C170.93 38.6689 171.1 38.854 171.242 39.0748C171.394 39.2814 171.529 39.5094 171.647 39.7588C171.777 39.994 171.9 40.2363 172.018 40.4857C172.136 40.7352 172.265 40.9639 172.405 41.1718C172.387 41.2522 172.381 41.3248 172.388 41.3895C172.407 41.44 172.426 41.4969 172.445 41.5603C172.477 41.6093 172.503 41.672 172.524 41.7484C172.544 41.8118 172.559 41.8952 172.57 41.9988C172.59 42.6906 172.422 43.2713 172.066 43.7408C171.721 44.196 171.278 44.5895 170.737 44.9213C170.207 45.2389 169.635 45.5281 169.021 45.789C168.406 46.037 167.85 46.2983 167.356 46.5729C167.361 46.6247 167.39 46.6478 167.441 46.6424C167.506 46.6356 167.53 46.6724 167.512 46.7528C167.925 46.9451 168.243 47.1015 168.465 47.2222C168.7 47.3415 168.913 47.4434 169.106 47.528C169.309 47.5982 169.525 47.6541 169.752 47.6957C169.992 47.736 170.317 47.7803 170.728 47.8288C171.139 47.8773 171.458 47.9223 171.685 47.9639C171.923 47.9912 172.135 48.0147 172.321 48.0345C172.505 48.0414 172.702 48.0469 172.912 48.051C173.122 48.0551 173.403 48.0582 173.757 48.0603C173.914 48.1878 174.049 48.3439 174.16 48.5286C174.271 48.7133 174.356 48.9008 174.415 49.0909C174.475 49.2811 174.501 49.4682 174.494 49.6522C174.499 49.8219 174.461 49.9633 174.381 50.0764C174.4 50.1269 174.435 50.1494 174.487 50.1439C174.55 50.1242 174.615 50.1173 174.681 50.1235C174.597 50.1978 174.528 50.2836 174.472 50.3811C174.417 50.4785 174.362 50.576 174.307 50.6734C174.251 50.7709 174.183 50.8632 174.1 50.9505C174.031 51.0363 173.932 51.0925 173.804 51.1191C173.356 51.3494 172.761 51.4185 172.019 51.3263C171.276 51.2342 170.319 51.0337 169.147 50.7248C168.568 50.5761 168.095 50.436 167.728 50.3044C167.361 50.1728 167.039 50.0429 166.764 49.9147C166.487 49.7736 166.23 49.624 165.99 49.4658C165.75 49.2947 165.473 49.0946 165.161 48.8656C165.124 48.8826 165.101 48.9112 165.092 48.9514C165.096 48.9903 165.079 49.0182 165.042 49.0353C165.031 49.56 164.972 49.9918 164.864 50.3305C164.768 50.6679 164.609 51.0185 164.385 51.3824C164.174 51.3653 164.033 51.3997 163.964 51.4856C163.907 51.5701 163.831 51.6501 163.734 51.7258C163.607 51.7653 163.509 51.769 163.44 51.737C163.373 51.7179 163.311 51.6916 163.255 51.6582C163.199 51.6248 163.137 51.5921 163.068 51.5601C162.999 51.528 162.894 51.526 162.753 51.5539C162.702 51.4414 162.652 51.3354 162.602 51.2359C162.551 51.1235 162.442 51.0825 162.275 51.1132C162.302 50.9926 162.304 50.8941 162.283 50.8177C162.261 50.7285 162.233 50.6528 162.2 50.5908C162.166 50.5158 162.132 50.4408 162.098 50.3658C162.077 50.2895 162.081 50.1975 162.109 50.0898ZM167.663 40.5311C167.521 40.7948 167.357 41.0411 167.171 41.2701C166.985 41.4861 166.799 41.7151 166.615 41.957C166.443 42.1846 166.292 42.4361 166.164 42.7114C166.035 42.9738 165.956 43.2832 165.928 43.6396C166.465 43.5177 167.019 43.3089 167.59 43.0132C168.16 42.7046 168.699 42.4123 169.207 42.1363C169.092 41.664 168.883 41.2997 168.581 41.0434C168.278 40.7741 167.972 40.6033 167.663 40.5311ZM173.931 41.6791C173.949 41.4807 173.959 41.3226 173.96 41.2047C173.959 41.0739 173.899 40.9427 173.781 40.8111C173.811 40.5985 173.833 40.4325 173.846 40.3133C173.873 40.1926 173.862 40.0301 173.815 39.8256C173.896 39.4767 174.041 39.1734 174.249 38.9158C174.471 38.6569 174.716 38.4347 174.984 38.2494C175.252 38.0511 175.535 37.8838 175.835 37.7476C176.134 37.5984 176.415 37.4706 176.678 37.3643C176.673 37.3125 176.644 37.2894 176.593 37.2948C176.541 37.3002 176.524 37.2692 176.544 37.2018C177.229 36.9988 177.909 36.7375 178.582 36.418C179.269 36.0971 179.971 35.8007 180.688 35.5289C181.406 35.2571 182.151 35.0609 182.924 34.9404C183.696 34.8069 184.522 34.8183 185.402 34.9745C185.47 35.1245 185.557 35.2659 185.663 35.3988C185.768 35.5317 185.874 35.6646 185.98 35.7976C186.097 35.9162 186.201 36.0361 186.292 36.1575C186.384 36.2788 186.443 36.41 186.471 36.5511C186.642 36.6772 186.781 36.8197 186.889 36.9785C187.009 37.123 187.051 37.3346 187.015 37.6134C186.883 37.7319 186.745 37.8512 186.601 37.9711C186.456 38.091 186.305 38.2052 186.146 38.3135C185.548 38.2323 184.96 38.2418 184.381 38.3418C183.803 38.4419 183.283 38.5424 182.822 38.6432C182.664 38.5028 182.488 38.4492 182.295 38.4826C182.101 38.503 181.897 38.5572 181.684 38.645C181.482 38.7186 181.281 38.7987 181.08 38.8852C180.879 38.9588 180.686 38.9921 180.502 38.9853C180.373 39.1298 180.195 39.2401 179.967 39.3164C179.738 39.3798 179.495 39.438 179.239 39.4911C179.233 39.5572 179.251 39.6012 179.292 39.623C179.334 39.6448 179.346 39.696 179.328 39.7764C179.431 39.8834 179.563 39.9546 179.724 39.9901C179.883 40.0126 180.042 40.0351 180.202 40.0577C180.374 40.0788 180.529 40.1214 180.667 40.1855C180.803 40.2367 180.899 40.3379 180.954 40.4892C181.189 40.4776 181.396 40.5213 181.577 40.6201C181.756 40.706 181.912 40.8206 182.045 40.9637C182.178 41.1069 182.28 41.2664 182.351 41.4422C182.42 41.6051 182.456 41.7585 182.458 41.9023C182.523 42.0263 182.581 42.0727 182.63 42.0413C182.692 42.0086 182.766 42.0335 182.854 42.116C182.926 42.3048 183.064 42.4997 183.268 42.7008C183.484 42.8876 183.657 43.0986 183.787 43.3337C183.853 43.7195 183.91 44.0671 183.955 44.3765C184.014 44.6846 183.994 44.9943 183.896 45.3058C183.736 45.8987 183.472 46.4435 183.105 46.9403C182.739 47.4371 182.308 47.8882 181.814 48.2937C181.331 48.6848 180.812 49.0405 180.257 49.3607C179.7 49.668 179.145 49.9357 178.593 50.164C178.54 50.1565 178.475 50.1633 178.399 50.1844C178.336 50.2041 178.319 50.1667 178.348 50.0719C178.242 50.1878 178.113 50.2668 177.96 50.309C177.821 50.3499 177.66 50.3734 177.477 50.3795C177.309 50.3972 177.133 50.4091 176.95 50.4152C176.781 50.42 176.613 50.4441 176.447 50.4877C176.333 50.395 176.225 50.3016 176.123 50.2076C176.035 50.1121 175.957 49.9959 175.89 49.8589C175.824 49.8528 175.788 49.8173 175.781 49.7526C175.786 49.6735 175.756 49.6374 175.691 49.6442C175.686 49.5924 175.688 49.5529 175.698 49.5256C175.708 49.4983 175.719 49.4711 175.729 49.4438C175.777 49.3995 175.793 49.3716 175.779 49.36C175.776 49.3341 175.755 49.3167 175.715 49.3079C175.686 49.2847 175.651 49.2622 175.609 49.2404C175.581 49.2172 175.571 49.1855 175.58 49.1453C175.632 49.0219 175.637 48.8839 175.595 48.7312C175.564 48.5643 175.534 48.3973 175.503 48.2303C175.472 48.0633 175.469 47.9066 175.493 47.76C175.516 47.6006 175.612 47.4595 175.782 47.3368C176.319 47.3328 176.815 47.2545 177.27 47.1019C177.738 46.948 178.17 46.7586 178.565 46.5337C178.974 46.3075 179.355 46.0711 179.708 45.8244C180.074 45.5635 180.428 45.3233 180.772 45.1039C180.797 44.9703 180.844 44.8541 180.912 44.7553C180.993 44.6551 181.075 44.5614 181.157 44.4742C181.238 44.374 181.313 44.2745 181.381 44.1757C181.448 44.0639 181.493 43.9348 181.517 43.7883C181.525 43.7351 181.52 43.6963 181.505 43.6717C181.489 43.6472 181.468 43.6298 181.44 43.6196C181.412 43.5964 181.383 43.5732 181.355 43.5501C181.326 43.5269 181.309 43.4894 181.303 43.4376C181.263 43.4287 181.223 43.4199 181.183 43.411C181.156 43.4008 181.129 43.397 181.103 43.3997C180.749 43.2668 180.378 43.1618 179.99 43.0847C179.602 43.0076 179.271 42.9115 178.997 42.7962C178.853 42.9162 178.7 42.9584 178.539 42.9229C178.378 42.8875 178.185 42.8554 177.96 42.8267C177.413 42.858 176.89 42.8607 176.389 42.8347C175.902 42.8073 175.422 42.7204 174.948 42.5738C174.914 42.4988 174.875 42.4374 174.83 42.3897C174.785 42.3291 174.692 42.3192 174.552 42.36C174.448 42.2401 174.339 42.1337 174.224 42.041C174.121 41.934 174.023 41.8134 173.931 41.6791Z" fill="#146EF5"/>
</g>
<g style="mix-blend-mode:multiply">
<path d="M82.8882 68.8692C83.0989 68.5172 83.3095 68.3413 83.3095 67.9894C85.2058 63.5903 84.9951 63.5904 85.4164 58.4875C86.2592 44.0587 85.8378 65.9514 85.8378 51.5226C85.8378 42.7246 85.8378 51.9993 85.6271 43.2012C85.4164 44.7593 84.9951 37.193 84.5737 29.6267C84.363 25.7555 84.1523 22.0604 83.9416 18.1892C83.9416 17.8373 83.9416 17.3094 83.9416 16.9575C82.8882 12.7344 83.5202 8.33543 82.8882 3.93642C82.8882 3.5845 82.8882 3.05661 83.0989 2.70469C82.6775 2.35277 83.5202 1.82489 84.1523 1.82489C84.7844 1.82489 85.6271 2.17681 85.8378 2.70469C86.0485 3.05661 86.0485 3.5845 86.2592 3.93642C86.2592 4.81622 86.2592 5.87198 86.2592 6.75179C86.2592 15.7258 87.3127 24.6998 87.3127 33.6738C88.1554 40.3603 87.5233 47.2227 87.9447 44.7849C87.9447 45.3128 87.9447 45.8406 87.9447 46.5445C87.5233 49.7118 87.734 53.055 87.9447 56.2223C88.1554 63.0848 88.1554 51.6986 87.9447 58.561C87.9447 60.8485 87.3127 63.136 87.5233 65.2475C87.734 67.535 87.9447 51.5738 87.9447 53.6853C88.1554 62.6593 87.9447 53.3846 87.734 62.3586C87.734 64.1182 87.5233 66.0538 87.3126 67.8134C87.3126 68.5172 87.9447 69.0451 88.9982 69.2211C90.2623 69.397 91.7371 69.397 93.0013 69.573C93.6333 69.749 94.2654 70.8047 93.844 71.3326C91.9478 73.7961 89.8409 76.2595 87.9447 78.723C87.3126 79.4268 86.0485 79.6028 85.2058 79.0749C84.9951 78.8989 84.5737 78.723 84.363 78.547C81.624 76.6114 79.7278 73.972 78.6744 71.3326C78.0423 69.9249 78.8851 69.0451 80.992 68.8692C81.624 68.8692 82.2561 68.8692 82.8882 68.8692Z" fill="#146EF5"/>
</g>
</svg>
