<svg width="48" height="48" viewBox="0 0 48 48" fill="none" xmlns="http://www.w3.org/2000/svg">
<path d="M36.25 15.8751H26.5L9.4375 32.9376" stroke="#146EF5" stroke-width="1.5"/>
<path d="M36.2499 32.1249H26.4999L21.6249 27.2499" stroke="#146EF5" stroke-width="1.5"/>
<path d="M9.4375 15.0624L15.125 20.7499" stroke="#146EF5" stroke-width="1.5"/>
<path d="M30.5624 10.1874L36.1174 15.7424C36.1906 15.8156 36.1906 15.9343 36.1174 16.0075L30.5624 21.5624" stroke="#146EF5" stroke-width="1.5"/>
<path d="M30.5624 26.4375L36.1174 31.9924C36.1906 32.0656 36.1906 32.1844 36.1174 32.2576L30.5624 37.8125" stroke="#146EF5" stroke-width="1.5"/>
<path d="M27.1648 4.27524C29.5079 1.9321 33.3069 1.9321 35.65 4.27524L43.0747 11.6999C45.4178 14.043 45.4178 17.842 43.0747 20.1851L40.7266 22.5333C40.1408 23.119 40.1408 24.0688 40.7266 24.6546L43.5729 27.5009C45.9161 29.8441 45.9161 33.6431 43.5729 35.9862L36.1483 43.4108C33.8051 45.754 30.0062 45.754 27.663 43.4108L27.3538 43.1017C27.2697 43.0175 27.1753 42.9444 27.0757 42.8794C26.7323 42.6556 26.4068 42.3929 26.1054 42.0915L19.3705 35.3566C18.7847 34.7709 17.835 34.7709 17.2492 35.3566L13.929 38.6768C11.5859 41.0199 7.7869 41.0199 5.44375 38.6768L3.68888 36.9219C1.34574 34.5788 1.34574 30.7798 3.68889 28.4366L7.00903 25.1165C7.59481 24.5307 7.59481 23.581 7.00902 22.9952L3.37467 19.3608C1.03152 17.0177 1.03152 13.2187 3.37467 10.8755L5.40587 8.84433C7.74902 6.50119 11.548 6.50119 13.8911 8.84434L18.0871 13.0403C18.1747 13.1279 18.318 13.122 18.4057 13.0343L27.1648 4.27524Z" stroke="#D8D8D8" stroke-width="1.5"/>
</svg>
