<svg width="55" height="49" viewBox="0 0 55 49" fill="none" xmlns="http://www.w3.org/2000/svg">
<path d="M22.75 17.4848L30.2399 10L45.25 25L30.2398 40L22.7906 32.5558" stroke="#146EF5" stroke-width="1.5" stroke-linecap="round" stroke-linejoin="round"/>
<path d="M19 32.5C14.875 28.5576 10.75 24.6151 10.75 24.6151C10.75 24.6151 14.8647 20.6826 18.9794 16.75" stroke="#146EF5" stroke-width="1.5" stroke-linecap="round" stroke-linejoin="round"/>
<path d="M30.5779 30.5934L36.2832 24.8881L30.5779 19.1828L24.8726 24.8881L30.5779 30.5934Z" stroke="#146EF5" stroke-width="1.5" stroke-linecap="round" stroke-linejoin="round"/>
<mask id="path-4-inside-1_2316_1973" fill="white">
<path fill-rule="evenodd" clip-rule="evenodd" d="M20.6614 8.66153L28.2901 1.03286C29.4617 -0.138712 31.3612 -0.138716 32.5327 1.03286L53.9328 22.4329C55.1043 23.6045 55.1043 25.5039 53.9328 26.6755L32.5327 48.0755C31.3612 49.2471 29.4617 49.2471 28.2901 48.0755L20.6614 40.4469L20.022 41.0863C18.8504 42.2579 16.9509 42.2579 15.7794 41.0863L1.36858 26.6755C0.197008 25.5039 0.197012 23.6045 1.36858 22.4329L15.7794 8.02209C16.9509 6.85052 18.8504 6.85052 20.022 8.0221L20.6614 8.66153Z"/>
</mask>
<path d="M20.6614 8.66153L19.6008 9.72219L20.6614 10.7828L21.7221 9.72219L20.6614 8.66153ZM28.2901 1.03286L27.2294 -0.0278001L28.2901 1.03286ZM32.5327 1.03286L31.4721 2.09352L31.4721 2.09352L32.5327 1.03286ZM53.9328 22.4329L52.8721 23.4935L52.8721 23.4935L53.9328 22.4329ZM53.9328 26.6755L54.9934 27.7362L54.9934 27.7362L53.9328 26.6755ZM32.5327 48.0755L31.4721 47.0149L31.4721 47.0149L32.5327 48.0755ZM28.2901 48.0755L29.3508 47.0149L29.3508 47.0149L28.2901 48.0755ZM20.6614 40.4469L21.7221 39.3862L20.6614 38.3256L19.6008 39.3862L20.6614 40.4469ZM20.022 41.0863L18.9613 40.0256L18.9613 40.0256L20.022 41.0863ZM15.7794 41.0863L14.7187 42.147L14.7187 42.147L15.7794 41.0863ZM1.36858 26.6755L0.30792 27.7362L1.36858 26.6755ZM1.36858 22.4329L0.307921 21.3722L1.36858 22.4329ZM15.7794 8.02209L14.7187 6.96143L15.7794 8.02209ZM20.022 8.0221L21.0827 6.96143L20.022 8.0221ZM21.7221 9.72219L29.3508 2.09352L27.2294 -0.0278001L19.6008 7.60087L21.7221 9.72219ZM29.3508 2.09352C29.9366 1.50773 30.8863 1.50773 31.4721 2.09352L33.5934 -0.0278034C31.836 -1.78517 28.9868 -1.78515 27.2294 -0.0278001L29.3508 2.09352ZM31.4721 2.09352L52.8721 23.4935L54.9934 21.3722L33.5934 -0.0278034L31.4721 2.09352ZM52.8721 23.4935C53.4579 24.0793 53.4579 25.0291 52.8721 25.6149L54.9934 27.7362C56.7508 25.9788 56.7508 23.1296 54.9934 21.3722L52.8721 23.4935ZM52.8721 25.6149L31.4721 47.0149L33.5934 49.1362L54.9934 27.7362L52.8721 25.6149ZM31.4721 47.0149C30.8863 47.6007 29.9366 47.6007 29.3508 47.0149L27.2294 49.1362C28.9868 50.8936 31.8361 50.8936 33.5934 49.1362L31.4721 47.0149ZM29.3508 47.0149L21.7221 39.3862L19.6008 41.5075L27.2294 49.1362L29.3508 47.0149ZM19.6008 39.3862L18.9613 40.0256L21.0827 42.147L21.7221 41.5075L19.6008 39.3862ZM18.9613 40.0256C18.3756 40.6114 17.4258 40.6114 16.84 40.0256L14.7187 42.147C16.4761 43.9043 19.3253 43.9043 21.0827 42.147L18.9613 40.0256ZM16.84 40.0256L2.42924 25.6149L0.30792 27.7362L14.7187 42.147L16.84 40.0256ZM2.42924 25.6149C1.84345 25.0291 1.84345 24.0793 2.42924 23.4935L0.307921 21.3722C-1.44943 23.1296 -1.44944 25.9788 0.30792 27.7362L2.42924 25.6149ZM2.42924 23.4935L16.84 9.08275L14.7187 6.96143L0.307921 21.3722L2.42924 23.4935ZM16.84 9.08275C17.4258 8.49697 18.3756 8.49697 18.9613 9.08276L21.0827 6.96143C19.3253 5.20408 16.4761 5.20408 14.7187 6.96143L16.84 9.08275ZM18.9613 9.08276L19.6008 9.72219L21.7221 7.60087L21.0827 6.96143L18.9613 9.08276Z" fill="#D8D8D8" mask="url(#path-4-inside-1_2316_1973)"/>
</svg>
