<svg width="54" height="48" viewBox="0 0 54 48" fill="none" xmlns="http://www.w3.org/2000/svg">
<path d="M42 12.75H9C8.58579 12.75 8.25 13.0858 8.25 13.5V35.25C8.25 35.6642 8.58579 36 9 36H35.25" stroke="#146EF5" stroke-width="1.5"/>
<path d="M36.75 30C40.0637 30 42.75 27.3137 42.75 24C42.75 27.3137 45.4363 30 48.75 30C45.4363 30 42.75 32.6863 42.75 36C42.75 32.6863 40.0637 30 36.75 30Z" stroke="#146EF5" stroke-width="1.5"/>
<path d="M29.25 25.5C31.3211 25.5 33 23.8211 33 21.75C33 23.8211 34.6789 25.5 36.75 25.5C34.6789 25.5 33 27.1789 33 29.25C33 27.1789 31.3211 25.5 29.25 25.5Z" stroke="#146EF5" stroke-width="1.5"/>
<path d="M45.75 13.5C45.75 13.0858 45.4142 12.75 45 12.75H9C8.58579 12.75 8.25 13.0858 8.25 13.5V18.75C8.25 19.1642 8.58579 19.5 9 19.5H45C45.4142 19.5 45.75 19.1642 45.75 18.75V13.5Z" stroke="#146EF5" stroke-width="1.5"/>
<rect x="1.5" y="5.25" width="51.75" height="37.5" rx="5.25" stroke="#D8D8D8" stroke-width="1.5"/>
</svg>
